<svg width="13" height="14" viewBox="0 0 13 14" fill="none" xmlns="http://www.w3.org/2000/svg">
<path d="M0 1C0 0.447716 0.447715 0 1 0H9C9.55228 0 10 0.447715 10 1V12C10 13.1046 9.10457 14 8 14H2C0.89543 14 0 13.1046 0 12V1Z" fill="#D0C778"/>
<path d="M12.5 7.5C12.5 9.76613 10.8793 11.5 9 11.5C7.12074 11.5 5.5 9.76613 5.5 7.5C5.5 5.23387 7.12074 3.5 9 3.5C10.8793 3.5 12.5 5.23387 12.5 7.5Z" stroke="#D0C778"/>
<circle cx="3.5" cy="4.5" r="0.5" fill="#D9D9D9"/>
<circle cx="4.5" cy="8.5" r="0.5" fill="#D9D9D9"/>
<circle cx="2.5" cy="7.5" r="0.5" fill="#D9D9D9"/>
<path d="M0 1C0 0.447715 0.447715 0 1 0H9C9.55228 0 10 0.447715 10 1V2H0V1Z" fill="#D9D9D9"/>
<circle cx="5.5" cy="5.5" r="0.5" fill="#D9D9D9"/>
</svg>
